<svg width="173" height="120" viewBox="0 0 173 120" fill="none" xmlns="http://www.w3.org/2000/svg">
<path d="M84.7754 16.291H87.495C100.723 17.0365 110.155 22.0568 117.148 29.0924C124.14 36.1281 129.309 45.4075 130 58.6845V61.3149C129.328 74.8042 124.068 83.7071 117.148 90.9509C109.878 97.8315 100.941 103.045 87.4511 103.708H84.7754C71.5488 102.961 62.1153 97.9428 55.1228 90.9068C48.1303 83.8711 42.9612 74.5919 42.2705 61.3149V58.6845C42.3049 58.6749 42.3218 58.6479 42.3144 58.5968C42.9758 45.3705 48.173 35.9946 55.123 29.0486C62.1049 22.0702 71.6345 17.0141 84.7754 16.291ZM76.1779 22.5602C73.5716 23.2577 71.2343 24.1435 69.1158 25.1905C62.6674 28.3773 57.3497 32.9367 53.6315 38.7809C50.0024 44.4854 46.8601 51.8237 47.3151 61.4463C47.602 67.5128 48.9871 72.6158 51.175 76.9657C55.4958 85.5546 62.0739 91.8831 71.1775 95.7295C75.6793 97.6315 81.2575 98.9657 87.5391 98.6666C93.5643 98.3799 98.7854 97.0262 103.111 94.8526C111.589 90.5923 118.27 84.019 121.973 74.9492C123.846 70.3612 125.262 65.0611 124.956 58.6405C124.377 46.4778 119.426 38.2309 112.893 31.9419C109.661 28.8301 105.768 26.1831 101.182 24.2699C96.731 22.4137 90.9373 21.0373 84.7321 21.3326C81.6815 21.4778 78.8039 21.8574 76.1779 22.5602Z" fill="#C6C6C6"/>
<path d="M82.0997 48.645C83.4895 49.5648 84.911 50.4531 86.223 51.4508C83.2591 53.3108 80.3534 55.2293 77.4063 57.1061C77.8538 57.4481 78.3626 57.7286 78.8099 58.0706C81.7816 56.189 84.7542 54.3085 87.7145 52.4152C89.0423 53.2365 90.3494 54.0783 91.5748 55.0019C88.6084 56.8744 85.7415 58.846 82.8018 60.7448C83.2373 61.0988 83.7713 61.3542 84.249 61.6655C87.2875 59.8068 90.2503 57.8725 93.2413 55.9665V49.741H99.8211V62.1479C101.678 62.25 103.725 62.1625 105.655 62.1914V68.0224H93.2413V62.1037C89.594 64.3183 85.8563 66.8228 82.1874 69.162C78.3667 66.6825 74.6845 64.0639 70.8704 61.5778C69.7654 65.0781 67.1412 67.7112 62.799 68.0224C60.091 68.2159 57.0137 67.8778 53.8945 68.0224V49.741C57.7941 49.9992 62.0761 49.2199 65.1677 50.1794C67.9013 51.0279 69.8394 53.2078 70.7385 55.9224C74.5555 53.5265 78.3111 51.0697 82.0997 48.645ZM60.167 55.6156V62.1916C61.7344 62.1993 62.9265 62.2903 63.8516 61.578C65.2279 60.5185 65.5052 57.8919 64.2902 56.4924C63.4793 55.5586 62.1104 55.3625 60.2107 55.4841C60.16 55.4915 60.1632 55.5535 60.167 55.6156ZM107.366 49.741H113.945V62.1916H119.736V68.0226H107.321V49.8726C107.318 49.8104 107.314 49.7484 107.366 49.741Z" fill="#C6C6C6"/>
</svg>
